<mxfile host="app.diagrams.net" agent="Mozilla/5.0 (Windows NT 10.0; Win64; x64) AppleWebKit/537.36 (KHTML, like Gecko) Chrome/128.0.0.0 Safari/537.36 OPR/114.0.0.0" version="24.8.3">
  <diagram id="C5RBs43oDa-KdzZeNtuy" name="Page-1">
    <mxGraphModel dx="792" dy="416" grid="1" gridSize="10" guides="1" tooltips="1" connect="1" arrows="1" fold="1" page="1" pageScale="1" pageWidth="827" pageHeight="1169" math="0" shadow="0">
      <root>
        <mxCell id="WIyWlLk6GJQsqaUBKTNV-0" />
        <mxCell id="WIyWlLk6GJQsqaUBKTNV-1" parent="WIyWlLk6GJQsqaUBKTNV-0" />
        <mxCell id="m9EqYZZ05aUki77S61iX-3" value="" style="edgeStyle=orthogonalEdgeStyle;rounded=0;orthogonalLoop=1;jettySize=auto;html=1;" edge="1" parent="WIyWlLk6GJQsqaUBKTNV-1" source="m9EqYZZ05aUki77S61iX-1" target="m9EqYZZ05aUki77S61iX-2">
          <mxGeometry relative="1" as="geometry" />
        </mxCell>
        <mxCell id="m9EqYZZ05aUki77S61iX-1" value="BAŞLA" style="ellipse;whiteSpace=wrap;html=1;" vertex="1" parent="WIyWlLk6GJQsqaUBKTNV-1">
          <mxGeometry x="330" y="350" width="120" height="80" as="geometry" />
        </mxCell>
        <mxCell id="m9EqYZZ05aUki77S61iX-5" value="" style="edgeStyle=orthogonalEdgeStyle;rounded=0;orthogonalLoop=1;jettySize=auto;html=1;" edge="1" parent="WIyWlLk6GJQsqaUBKTNV-1" source="m9EqYZZ05aUki77S61iX-2" target="m9EqYZZ05aUki77S61iX-4">
          <mxGeometry relative="1" as="geometry" />
        </mxCell>
        <mxCell id="m9EqYZZ05aUki77S61iX-2" value="SİCAKLİK" style="shape=parallelogram;perimeter=parallelogramPerimeter;whiteSpace=wrap;html=1;fixedSize=1;" vertex="1" parent="WIyWlLk6GJQsqaUBKTNV-1">
          <mxGeometry x="330" y="490" width="120" height="60" as="geometry" />
        </mxCell>
        <mxCell id="m9EqYZZ05aUki77S61iX-7" value="" style="edgeStyle=orthogonalEdgeStyle;rounded=0;orthogonalLoop=1;jettySize=auto;html=1;" edge="1" parent="WIyWlLk6GJQsqaUBKTNV-1" source="m9EqYZZ05aUki77S61iX-4" target="m9EqYZZ05aUki77S61iX-6">
          <mxGeometry relative="1" as="geometry" />
        </mxCell>
        <mxCell id="m9EqYZZ05aUki77S61iX-8" style="edgeStyle=orthogonalEdgeStyle;rounded=0;orthogonalLoop=1;jettySize=auto;html=1;exitX=0;exitY=1;exitDx=0;exitDy=0;" edge="1" parent="WIyWlLk6GJQsqaUBKTNV-1" source="m9EqYZZ05aUki77S61iX-4">
          <mxGeometry relative="1" as="geometry">
            <mxPoint x="230" y="720" as="targetPoint" />
          </mxGeometry>
        </mxCell>
        <mxCell id="m9EqYZZ05aUki77S61iX-4" value="SİCAKLİK&amp;lt;=0" style="rhombus;whiteSpace=wrap;html=1;" vertex="1" parent="WIyWlLk6GJQsqaUBKTNV-1">
          <mxGeometry x="350" y="620" width="80" height="80" as="geometry" />
        </mxCell>
        <mxCell id="m9EqYZZ05aUki77S61iX-17" style="edgeStyle=orthogonalEdgeStyle;rounded=0;orthogonalLoop=1;jettySize=auto;html=1;exitX=0.5;exitY=1;exitDx=0;exitDy=0;entryX=0.5;entryY=0;entryDx=0;entryDy=0;" edge="1" parent="WIyWlLk6GJQsqaUBKTNV-1" source="m9EqYZZ05aUki77S61iX-6" target="m9EqYZZ05aUki77S61iX-16">
          <mxGeometry relative="1" as="geometry" />
        </mxCell>
        <mxCell id="m9EqYZZ05aUki77S61iX-18" style="edgeStyle=orthogonalEdgeStyle;rounded=0;orthogonalLoop=1;jettySize=auto;html=1;exitX=0;exitY=1;exitDx=0;exitDy=0;entryX=0.5;entryY=0;entryDx=0;entryDy=0;" edge="1" parent="WIyWlLk6GJQsqaUBKTNV-1" source="m9EqYZZ05aUki77S61iX-6" target="m9EqYZZ05aUki77S61iX-14">
          <mxGeometry relative="1" as="geometry" />
        </mxCell>
        <mxCell id="m9EqYZZ05aUki77S61iX-6" value="sicakliik&amp;gt;=100" style="rhombus;whiteSpace=wrap;html=1;" vertex="1" parent="WIyWlLk6GJQsqaUBKTNV-1">
          <mxGeometry x="350" y="790" width="80" height="80" as="geometry" />
        </mxCell>
        <mxCell id="m9EqYZZ05aUki77S61iX-20" style="edgeStyle=orthogonalEdgeStyle;rounded=0;orthogonalLoop=1;jettySize=auto;html=1;exitX=0;exitY=0.5;exitDx=0;exitDy=0;entryX=0;entryY=0.5;entryDx=0;entryDy=0;" edge="1" parent="WIyWlLk6GJQsqaUBKTNV-1" source="m9EqYZZ05aUki77S61iX-9" target="m9EqYZZ05aUki77S61iX-19">
          <mxGeometry relative="1" as="geometry">
            <mxPoint x="90" y="1225.333251953125" as="targetPoint" />
            <Array as="points">
              <mxPoint x="91" y="760" />
              <mxPoint x="91" y="1215" />
            </Array>
          </mxGeometry>
        </mxCell>
        <mxCell id="m9EqYZZ05aUki77S61iX-9" value="su katı formda" style="shape=document;whiteSpace=wrap;html=1;boundedLbl=1;" vertex="1" parent="WIyWlLk6GJQsqaUBKTNV-1">
          <mxGeometry x="170" y="720" width="120" height="80" as="geometry" />
        </mxCell>
        <mxCell id="m9EqYZZ05aUki77S61iX-10" value="evet" style="text;html=1;align=center;verticalAlign=middle;whiteSpace=wrap;rounded=0;" vertex="1" parent="WIyWlLk6GJQsqaUBKTNV-1">
          <mxGeometry x="270" y="660" width="60" height="30" as="geometry" />
        </mxCell>
        <mxCell id="m9EqYZZ05aUki77S61iX-11" value="hayır" style="text;html=1;align=center;verticalAlign=middle;whiteSpace=wrap;rounded=0;" vertex="1" parent="WIyWlLk6GJQsqaUBKTNV-1">
          <mxGeometry x="400" y="700" width="60" height="30" as="geometry" />
        </mxCell>
        <mxCell id="m9EqYZZ05aUki77S61iX-23" style="edgeStyle=orthogonalEdgeStyle;rounded=0;orthogonalLoop=1;jettySize=auto;html=1;entryX=0.5;entryY=0;entryDx=0;entryDy=0;" edge="1" parent="WIyWlLk6GJQsqaUBKTNV-1" source="m9EqYZZ05aUki77S61iX-14" target="m9EqYZZ05aUki77S61iX-19">
          <mxGeometry relative="1" as="geometry" />
        </mxCell>
        <mxCell id="m9EqYZZ05aUki77S61iX-14" value="su gaz formda" style="shape=document;whiteSpace=wrap;html=1;boundedLbl=1;" vertex="1" parent="WIyWlLk6GJQsqaUBKTNV-1">
          <mxGeometry x="140" y="940" width="120" height="80" as="geometry" />
        </mxCell>
        <mxCell id="m9EqYZZ05aUki77S61iX-15" value="evet" style="text;html=1;align=center;verticalAlign=middle;whiteSpace=wrap;rounded=0;" vertex="1" parent="WIyWlLk6GJQsqaUBKTNV-1">
          <mxGeometry x="280" y="880" width="60" height="30" as="geometry" />
        </mxCell>
        <mxCell id="m9EqYZZ05aUki77S61iX-26" style="edgeStyle=orthogonalEdgeStyle;rounded=0;orthogonalLoop=1;jettySize=auto;html=1;" edge="1" parent="WIyWlLk6GJQsqaUBKTNV-1" source="m9EqYZZ05aUki77S61iX-16" target="m9EqYZZ05aUki77S61iX-24">
          <mxGeometry relative="1" as="geometry" />
        </mxCell>
        <mxCell id="m9EqYZZ05aUki77S61iX-16" value="susıvı fomda" style="shape=document;whiteSpace=wrap;html=1;boundedLbl=1;" vertex="1" parent="WIyWlLk6GJQsqaUBKTNV-1">
          <mxGeometry x="330" y="1000" width="120" height="80" as="geometry" />
        </mxCell>
        <mxCell id="m9EqYZZ05aUki77S61iX-19" value="" style="ellipse;whiteSpace=wrap;html=1;aspect=fixed;" vertex="1" parent="WIyWlLk6GJQsqaUBKTNV-1">
          <mxGeometry x="130" y="1200" width="30" height="30" as="geometry" />
        </mxCell>
        <mxCell id="m9EqYZZ05aUki77S61iX-24" value="bitir" style="ellipse;whiteSpace=wrap;html=1;" vertex="1" parent="WIyWlLk6GJQsqaUBKTNV-1">
          <mxGeometry x="330" y="1180" width="120" height="80" as="geometry" />
        </mxCell>
        <mxCell id="m9EqYZZ05aUki77S61iX-25" style="edgeStyle=orthogonalEdgeStyle;rounded=0;orthogonalLoop=1;jettySize=auto;html=1;entryX=0.083;entryY=0.438;entryDx=0;entryDy=0;entryPerimeter=0;" edge="1" parent="WIyWlLk6GJQsqaUBKTNV-1" source="m9EqYZZ05aUki77S61iX-19" target="m9EqYZZ05aUki77S61iX-24">
          <mxGeometry relative="1" as="geometry" />
        </mxCell>
      </root>
    </mxGraphModel>
  </diagram>
</mxfile>
